<?xml version="1.0" encoding="UTF-8"?>
<svg version="1.1" xmlns="http://www.w3.org/2000/svg" width="730" height="367">
<path d="M0 0 C1.49273437 -0.0309375 1.49273437 -0.0309375 3.015625 -0.0625 C18.5333895 -0.14353271 29.13018021 6.51462064 40.390625 16.74609375 C46.5121919 22.91578617 51.78630277 29.6391109 56.9375 36.625 C61.96803627 43.39285396 67.05492223 50.10754444 72.25 56.75 C76.67138455 62.40726189 81.03671983 68.09761813 85.33203125 73.8515625 C88.85045541 78.55954207 92.39017404 83.25127 95.9375 87.9375 C96.92919189 89.25681519 96.92919189 89.25681519 97.94091797 90.6027832 C107.16451075 103.92020257 107.16451075 103.92020257 121.03125 110.7890625 C135.14192863 111.15172013 145.17492919 104.38568166 155.72631836 95.80737305 C158.58010312 93.55930558 160.36774547 92.34193988 164 91.68359375 C169.04276896 92.67707405 171.56505357 95.59413385 174.33203125 99.7109375 C175.12722354 101.00953252 175.91223875 102.3144086 176.6875 103.625 C177.09419922 104.27210938 177.50089844 104.91921875 177.91992188 105.5859375 C180.31261448 109.57509895 181.63184749 112.47449326 180.875 117.25 C179.6953125 119.41796875 179.6953125 119.41796875 178 121.4375 C177.360625 122.20707031 176.72125 122.97664063 176.0625 123.76953125 C172.89039263 127.36647442 169.66120625 130.90794526 166.41015625 134.43359375 C163.99147969 137.12059807 161.70296429 139.87086729 159.4375 142.6875 C156.21556252 146.68224789 152.86838154 150.49547626 149.375 154.25 C143.6467115 160.4082834 138.34305914 166.8822448 133.11328125 173.46875 C126.15539756 181.90254841 117.44614994 188.14937079 106.44140625 189.5625 C98.00046801 189.98388849 90.80815066 187.28188245 84.42382812 181.76049805 C81.52970913 178.93800211 79.15879364 175.73668901 76.75 172.5 C76.18724365 171.75411621 75.6244873 171.00823242 75.04467773 170.23974609 C70.73925498 164.49797693 66.5801361 158.65817461 62.47070312 152.77514648 C58.0734734 146.48834704 53.53150367 140.3150027 48.96313477 134.15185547 C45.37614798 129.30689937 41.85194939 124.42433998 38.375 119.5 C32.4577963 110.37631433 32.4577963 110.37631433 23.875 104.25 C17.34089616 104.35538877 14.47278075 105.65221925 9.875 110.25 C7.6910048 113.5259928 7.62486003 114.45678657 7.6234436 118.25099182 C7.61536934 119.80053307 7.61536934 119.80053307 7.60713196 121.38137817 C7.61125595 122.51437347 7.61537994 123.64736877 7.61962891 124.81469727 C7.61600845 126.00851517 7.612388 127.20233307 7.60865784 128.43232727 C7.5999485 131.70961204 7.59975134 134.98678255 7.6020093 138.26407361 C7.60126127 141.70008721 7.5861941 145.13602801 7.57162476 148.57200623 C7.5246277 160.27527259 7.50067794 171.97852824 7.49414062 183.68188477 C7.49037802 190.14502838 7.47224836 196.60797879 7.43904626 203.07103962 C7.42221052 206.48749796 7.41296716 209.90360503 7.42198563 213.32010078 C7.42907704 217.14020808 7.41172746 220.95950975 7.38916016 224.77954102 C7.39733261 225.8983667 7.40550507 227.01719238 7.41392517 228.16992188 C7.30925683 238.16687172 4.80029653 246.06765368 -2.125 253.42578125 C-10.11979882 260.71791221 -16.26225631 262.564208 -26.9296875 262.46875 C-34.40716905 261.95684417 -40.02442625 257.8212075 -45.6875 253.125 C-52.24155067 245.39458126 -54.27473059 237.46145287 -54.27217102 227.52307129 C-54.27768605 226.36660921 -54.27768605 226.36660921 -54.2833125 225.18678427 C-54.29431309 222.60693791 -54.29818705 220.02713189 -54.30200195 217.44726562 C-54.30826948 215.59572218 -54.31491653 213.74417999 -54.32191467 211.89263916 C-54.34292788 205.81385163 -54.35331638 199.73506394 -54.36328125 193.65625 C-54.36733021 191.55991096 -54.37144717 189.46357205 -54.37563133 187.36723328 C-54.39467913 177.51450547 -54.4089095 167.66178513 -54.4172433 157.80904245 C-54.42700629 146.45545272 -54.45330311 135.10205844 -54.49374419 123.74853754 C-54.52396502 114.96104348 -54.53871794 106.17360524 -54.54202431 97.38606024 C-54.5443685 92.14358179 -54.55324623 86.90131223 -54.57848549 81.65888977 C-54.60187494 76.72089437 -54.60595593 71.78324379 -54.59572411 66.84520721 C-54.59523123 65.0413625 -54.60147778 63.23750017 -54.61528015 61.43370819 C-54.74525785 43.42718949 -51.11924049 29.01056032 -38.50390625 15.60546875 C-27.35576108 4.56715752 -15.45679672 0.07826226 0 0 Z " fill="#70B0E7" transform="translate(147.125,60.75)"/>
<path d="M0 0 C9.9572867 8.11116254 16.83879236 20.26961866 18.2254734 33.083534 C18.59722739 38.7902667 18.54511662 44.50160022 18.51757812 50.2175293 C18.52300874 52.12438489 18.53013664 54.03123627 18.53881836 55.93807983 C18.55693921 61.08048558 18.55003189 66.22256769 18.53730202 71.36497855 C18.52712021 76.76414548 18.5365816 82.16328612 18.54284668 87.56245422 C18.55010619 96.62314797 18.54057805 105.68371092 18.52148438 114.74438477 C18.49969923 125.20269694 18.50678585 135.66069736 18.52879 146.11900204 C18.54696887 155.12149613 18.54949074 164.12389664 18.53903532 173.12640315 C18.53281662 178.49326836 18.53192041 183.85998721 18.54518127 189.22684288 C18.5567761 194.27086165 18.5486478 199.31447993 18.52560425 204.35845566 C18.52033739 206.20386275 18.52179609 208.04930384 18.53065491 209.89469719 C18.60837641 227.73608989 18.60837641 227.73608989 14 236 C13.4225 237.0725 12.845 238.145 12.25 239.25 C6.87840618 245.81528134 -0.12111316 250.37198835 -8.6328125 251.28125 C-18.31339048 251.60483478 -25.46822148 249.2183157 -32.921875 243.015625 C-40.493283 235.67192852 -43.01064236 227.75653828 -43.2515564 217.3711853 C-43.26279151 215.24146399 -43.26344309 213.11166925 -43.25537109 210.98193359 C-43.26080177 209.22655525 -43.26080177 209.22655525 -43.26634216 207.43571472 C-43.27320754 204.9083776 -43.27574699 202.38102574 -43.27439499 199.85367966 C-43.27342625 195.85197371 -43.28598866 191.8504416 -43.30337524 187.8487854 C-43.35021155 176.4760392 -43.37434813 165.10330727 -43.38085938 153.73046875 C-43.38461536 147.43540906 -43.40268021 141.14054839 -43.43595374 134.84557402 C-43.45280978 131.52149422 -43.45966155 128.19785678 -43.45301437 124.87372971 C-43.4459495 121.16860631 -43.46321389 117.46432148 -43.48583984 113.75927734 C-43.47766739 112.66714432 -43.46949493 111.57501129 -43.46107483 110.44978333 C-43.53010974 104.09444035 -44.16293444 100.14497211 -48 95 C-51.22747055 92.84835297 -52.20505639 92.72754921 -55.9375 92.75 C-56.79214844 92.74484375 -57.64679688 92.7396875 -58.52734375 92.734375 C-61.98942925 93.1062894 -64.1729428 94.09061907 -66.53295898 96.68554688 C-67.25721069 97.69198242 -67.25721069 97.69198242 -67.99609375 98.71875 C-68.82379272 99.85582397 -68.82379272 99.85582397 -69.66821289 101.01586914 C-70.54401001 102.24551392 -70.54401001 102.24551392 -71.4375 103.5 C-72.05294678 104.35005615 -72.66839355 105.2001123 -73.30249023 106.07592773 C-75.20895883 108.71210773 -77.10450745 111.35592166 -79 114 C-80.11615934 115.54371267 -81.23330003 117.0867164 -82.3515625 118.62890625 C-85.03512697 122.33215215 -87.71037254 126.0412986 -90.38232422 129.75292969 C-95.24574038 136.50857146 -100.11859822 143.25734431 -105 150 C-105.50869629 150.70382813 -106.01739258 151.40765625 -106.54150391 152.1328125 C-108.00353986 154.15345876 -109.46984392 156.17093344 -110.9375 158.1875 C-111.3617627 158.77490967 -111.78602539 159.36231934 -112.22314453 159.9675293 C-118.0731095 167.97873771 -123.78853682 175.73078596 -134 178 C-144.42280959 178.9969644 -152.44205721 177.21796013 -160.625 170.5625 C-172.52391373 159.22751583 -181.90121771 144.62289903 -191 131 C-190.48953125 130.25169922 -190.48953125 130.25169922 -189.96875 129.48828125 C-174.07563131 105.94448574 -165.34785748 84.52236423 -164.4375 56.0625 C-164.39431641 54.80630859 -164.35113281 53.55011719 -164.30664062 52.25585938 C-164.20106381 49.17067032 -164.09895449 46.08540737 -164 43 C-159.29784823 47.3541747 -155.68069253 52.31589666 -151.9375 57.5 C-145.58663857 67.82536539 -145.58663857 67.82536539 -136 74 C-131.1265059 73.79261727 -127.66531619 72.11927792 -124 69 C-121.63394115 66.28479018 -119.57353342 63.37947941 -117.5 60.4375 C-116.26202001 58.71853299 -115.02373005 56.99978919 -113.78515625 55.28125 C-112.84373779 53.96447266 -112.84373779 53.96447266 -111.88330078 52.62109375 C-108.94306861 48.52901019 -105.93798508 44.48548674 -102.9375 40.4375 C-99.45404015 35.73033206 -95.99421768 31.01085192 -92.6171875 26.2265625 C-80.02745637 8.41606768 -67.36897637 -7.10645041 -45.0625 -12.3125 C-28.09365312 -15.0372274 -13.60354413 -10.35698402 0 0 Z " fill="#70B0E7" transform="translate(610,73)"/>
<path d="M0 0 C1.12537422 -0.01210762 1.12537422 -0.01210762 2.27348328 -0.02445984 C3.86109149 -0.03824029 5.44872857 -0.04898922 7.03637695 -0.05688477 C8.62533548 -0.06829993 10.21425894 -0.0885816 11.80297852 -0.1184082 C33.29819846 -0.52058698 52.97413231 4.11414764 69.13671875 19.23828125 C83.56344759 33.33861351 91.93964369 50.37998661 92.42919922 70.69433594 C92.69532883 102.0197381 78.51483661 126.22472586 57.60742188 148.65869141 C55.61416704 150.79952122 53.63110151 152.94966844 51.64794922 155.09985352 C50.63704421 156.1958444 49.62564749 157.29138194 48.61376953 158.38647461 C45.31900257 161.95235686 42.03757222 165.53001632 38.76171875 169.11328125 C35.17599245 173.03353596 31.56653491 176.93059661 27.93774414 180.81103516 C26.74234647 182.09020951 25.54880508 183.37112123 24.35717773 184.65380859 C21.54941244 187.67420681 18.72539221 190.67078509 15.8359375 193.61328125 C15.32611328 194.14244141 14.81628906 194.67160156 14.29101562 195.21679688 C12.91958527 196.63935912 11.53449447 198.04871643 10.1484375 199.45703125 C7.75664955 202.76373614 7.40091573 205.21052355 7.13671875 209.23828125 C11.93027787 211.13482498 16.24905026 211.52183926 21.34179688 211.49365234 C22.14258163 211.4972728 22.94336639 211.50089325 23.76841736 211.50462341 C25.49858973 211.51149062 27.22878364 211.51402789 28.95896912 211.51267624 C31.7000483 211.51170741 34.44073922 211.52469436 37.1817627 211.54165649 C44.97189367 211.58782764 52.76198288 211.61253993 60.55224609 211.61914062 C65.32500632 211.62415878 70.09735806 211.64841951 74.86997986 211.68446732 C76.68478441 211.69425386 78.49964521 211.69660351 80.31446838 211.69129562 C82.85396957 211.68421444 85.39225435 211.70152656 87.93164062 211.72412109 C88.676754 211.71594864 89.42186737 211.70777618 90.18955994 211.69935608 C96.23260559 211.79479163 99.80731862 213.8759513 103.98461914 218.11230469 C106.47242717 222.70307229 105.60385127 228.3968758 105.57421875 233.48828125 C105.59419922 234.69097656 105.61417969 235.89367187 105.63476562 237.1328125 C105.63082435 244.31382454 105.0671031 249.16994057 101.13671875 255.23828125 C96.80481229 259.3588752 93.56216165 260.35998425 87.68688965 260.38545227 C86.55433746 260.39260757 85.42178528 260.39976288 84.25491333 260.40713501 C82.38946365 260.41116837 82.38946365 260.41116837 80.48632812 260.4152832 C79.17707367 260.4218544 77.86781921 260.4284256 76.51889038 260.43519592 C72.17276228 260.45622826 67.82663389 260.46660194 63.48046875 260.4765625 C61.98153159 260.48061127 60.48259462 260.48472823 58.98365784 260.48891258 C51.93622791 260.50796752 44.88880844 260.52219428 37.84135771 260.53052455 C29.72400159 260.54027906 21.60691946 260.56655026 13.48965979 260.60702544 C7.2058253 260.63727525 0.92206892 260.65200205 -5.36183691 260.65530556 C-9.10978195 260.65764724 -12.85743442 260.66649059 -16.6053009 260.69176674 C-20.13813545 260.71520642 -23.67048816 260.71921783 -27.20338058 260.70900536 C-29.10137843 260.70828109 -30.99935268 260.72726311 -32.89724731 260.74707031 C-42.76239987 260.68776707 -52.03131827 258.92568881 -59.4296875 251.953125 C-66.58756262 243.3909801 -66.75051187 232.86026569 -65.86328125 222.23828125 C-63.72053252 211.73106762 -57.36722896 202.16608056 -49.61328125 194.9140625 C-47.73379381 193.11428546 -46.05585188 191.21420634 -44.36328125 189.23828125 C-41.58088793 186.00871758 -38.65308696 183.00505472 -35.61328125 180.01953125 C-33.78085638 178.15438451 -32.0697499 176.21900379 -30.36328125 174.23828125 C-27.58088793 171.00871758 -24.65308696 168.00505472 -21.61328125 165.01953125 C-19.78085638 163.15438451 -18.0697499 161.21900379 -16.36328125 159.23828125 C-13.61007124 156.04259106 -10.71700686 153.06645734 -7.70751953 150.11376953 C-5.92662846 148.30270186 -4.26134977 146.43710461 -2.60546875 144.51171875 C1.00040528 140.36429622 4.73605838 136.35579856 8.51171875 132.36328125 C9.83382961 130.95489279 11.15544606 129.54604005 12.4765625 128.13671875 C14.58761305 125.88586711 16.70381507 123.64073128 18.828125 121.40234375 C30.72478622 108.61601917 39.82643372 93.69199055 39.19921875 75.67578125 C38.20182826 66.90086705 34.71051892 59.21836915 28.19921875 53.17578125 C20.87663428 47.49732423 12.90102684 45.54115449 3.7109375 46.48828125 C-9.39929455 49.02428469 -17.49247871 57.44757926 -25.86328125 67.23828125 C-27.67840152 69.33826384 -29.51552303 71.41699119 -31.36328125 73.48828125 C-31.80196533 73.99576904 -32.24064941 74.50325684 -32.69262695 75.02612305 C-37.48227803 80.36039315 -42.98957926 83.89245751 -50.23046875 84.40625 C-59.6144393 84.47933388 -65.71009484 82.20268646 -72.61328125 75.61328125 C-76.19702831 70.98233538 -77.10229712 65.61785442 -76.6953125 59.86328125 C-74.95360594 51.9011941 -69.4056934 46.01164132 -64.29003906 39.93701172 C-62.19453679 37.44205881 -60.1597454 34.89850574 -58.11328125 32.36328125 C-56.70042616 30.65179426 -55.28405038 28.94320421 -53.86328125 27.23828125 C-53.25871094 26.50867188 -52.65414063 25.7790625 -52.03125 25.02734375 C-38.5200472 9.10669395 -21.04279847 0.22106218 0 0 Z " fill="#70B0E7" transform="translate(338.86328125,60.76171875)"/>
</svg>
