<svg version="1.1" id="Layer_1" xmlns="http://www.w3.org/2000/svg" xmlns:xlink="http://www.w3.org/1999/xlink" x="0px" y="0px"
	 width="100%" viewBox="0 0 1024 1024" enable-background="new 0 0 1024 1024" xml:space="preserve">

<path fill="#6ABCED" opacity="1.000000" stroke="none" 
	d="
M266.006348,369.002930 
	C266.049835,372.692047 266.093292,376.381195 265.781738,380.815918 
	C265.627411,386.045502 265.828094,390.529480 266.028778,395.013428 
	C266.080933,400.021393 266.133087,405.029388 265.822479,410.781036 
	C265.667725,415.362823 265.875702,419.200928 266.083649,423.039032 
	C266.120697,424.406433 266.157745,425.773865 265.826660,427.836487 
	C265.308563,429.170685 265.028168,429.809540 265.027466,430.448700 
	C265.001892,454.102631 264.985992,477.756592 265.045654,501.410400 
	C265.048706,502.622528 265.730347,503.832947 266.096008,505.044159 
	C266.106384,505.481476 266.116760,505.918793 265.895721,506.760956 
	C265.596497,507.267090 265.448578,507.422119 265.474457,507.460632 
	C265.603119,507.652527 265.777527,507.813751 265.935852,507.985748 
	C264.948181,523.607300 251.820404,538.181396 236.351898,540.828979 
	C219.533005,543.707703 203.134109,535.326599 196.681259,519.789612 
	C194.504440,514.548279 193.057022,508.575989 193.037476,502.931671 
	C192.793457,432.438110 192.761032,361.943176 192.920151,291.449158 
	C192.995117,258.238983 221.580109,229.805481 254.709152,228.851196 
	C280.714325,228.102097 299.863708,239.753311 315.039825,259.945709 
	C337.249573,289.496674 359.727203,318.847137 382.206696,348.194153 
	C389.281891,357.430786 398.505524,363.455902 410.513092,361.818726 
	C416.187988,361.044952 421.914246,358.336212 426.890015,355.308929 
	C433.688782,351.172424 439.725067,345.800018 446.216858,341.136536 
	C452.278564,336.781982 457.252838,337.735138 461.476837,343.932892 
	C464.758057,348.747375 468.015015,353.589844 471.019409,358.578461 
	C474.322174,364.062408 473.702057,368.434235 469.583435,373.155670 
	C450.317596,395.241302 430.992584,417.276245 411.861725,439.478424 
	C397.035919,456.684448 373.283691,459.556915 357.979706,444.655884 
	C350.672333,437.540955 345.198334,428.505035 339.117798,420.175751 
	C324.881195,400.674011 310.791199,381.065277 296.619507,361.515991 
	C287.015289,348.267303 274.121063,349.587585 266.363953,364.917114 
	C265.893158,366.535034 265.949738,367.768982 266.006348,369.002930 
z"/>
<path fill="#6ABCED" opacity="1.000000" stroke="none" 
	d="
M779.567017,539.600037 
	C764.046021,532.153564 757.180359,519.641846 757.145020,503.276764 
	C757.049561,459.115540 757.195618,414.953888 757.212036,370.792389 
	C757.215332,361.751617 751.655823,354.481934 743.532410,353.015533 
	C737.137207,351.861145 732.365417,354.329865 728.536011,359.628235 
	C709.027893,386.619629 689.075256,413.294464 669.857178,440.489258 
	C656.033997,460.049896 629.996765,460.949402 614.286255,443.533966 
	C606.398499,434.790131 599.833069,424.849487 592.722229,415.410370 
	C588.729553,410.110352 584.844299,404.729462 580.678894,399.070129 
	C606.998779,368.307526 616.472107,332.683472 612.457764,292.638855 
	C615.147339,296.233154 617.862915,299.808350 620.521057,303.425751 
	C625.845825,310.672424 631.109497,317.964081 636.452881,325.196960 
	C643.645508,334.933167 654.004944,335.017731 661.265198,325.214569 
	C677.617798,303.134644 693.802246,280.930359 710.128235,258.830658 
	C721.557129,243.359863 736.332581,233.214844 755.557190,229.573425 
	C789.209900,223.199127 823.949951,247.415619 829.124207,281.266174 
	C829.575134,284.215942 830.004761,287.208496 830.006897,290.181488 
	C830.057495,361.673126 830.088440,433.164825 830.024597,504.656433 
	C830.006409,524.979492 815.526611,540.906555 795.525269,542.156921 
	C790.391357,542.477783 785.121460,540.622375 779.567017,539.600037 
z"/>
<path fill="#6ABCED" opacity="1.000000" stroke="none" 
	d="
M422.021912,329.823181 
	C406.969238,328.715118 396.709839,320.567261 394.835297,306.865509 
	C394.153381,301.881348 395.322876,295.343719 398.219482,291.407349 
	C407.968536,278.158997 418.205627,265.128326 429.505310,253.197632 
	C444.091278,237.797134 463.144165,230.460281 484.054077,229.312347 
	C500.612457,228.403305 517.249329,228.202606 533.631042,232.810516 
	C568.690002,242.672043 594.737366,276.705383 595.251343,313.135986 
	C595.699219,344.884827 585.005737,372.206482 563.870789,395.475342 
	C542.482666,419.022949 520.666809,442.181976 499.048065,465.520294 
	C497.464417,467.229919 495.512024,468.798065 494.541138,470.820831 
	C493.504944,472.979675 492.461334,475.994843 493.235718,477.897644 
	C493.884369,479.491516 497.103333,480.757874 499.259857,480.884918 
	C505.736725,481.266541 512.250549,481.018646 518.750000,481.018738 
	C543.581116,481.019104 568.412231,481.014984 593.243347,481.023804 
	C604.576477,481.027802 611.018616,487.264404 611.138245,498.459320 
	C611.211243,505.290588 611.189941,512.125122 611.070251,518.955688 
	C610.895142,528.947144 603.133057,539.364502 590.350525,539.251953 
	C541.525330,538.822083 492.689789,538.684631 443.866943,539.230042 
	C418.266022,539.515991 403.617889,523.323120 407.411621,495.356598 
	C409.356598,481.018555 417.898834,470.462708 427.305298,460.375763 
	C455.250000,430.409515 483.349670,400.585114 511.034943,370.380951 
	C521.465942,359.000854 529.616882,346.086853 532.265686,330.348511 
	C535.403137,311.706787 527.561707,295.200073 511.546509,287.329681 
	C496.079468,279.728699 477.750092,283.805939 465.294800,297.631165 
	C458.605927,305.055634 452.077820,312.631592 445.210388,319.886688 
	C439.101501,326.340454 431.310516,329.417847 422.021912,329.823181 
z"/>
<path fill="#68BAEC" opacity="1.000000" stroke="none" 
	d="
M594.121094,716.146362 
	C594.123230,736.765137 594.123230,756.900635 594.123230,777.916199 
	C591.289917,777.916199 587.984985,778.289307 584.856567,777.709778 
	C583.790466,777.512268 582.457703,774.920227 582.454224,773.419556 
	C582.422668,759.932373 582.660522,746.444641 582.817749,732.957031 
	C582.825073,732.329895 582.818726,731.702576 582.111572,730.793640 
	C578.395874,737.913452 574.711365,745.049805 570.951843,752.146423 
	C568.926025,755.970398 567.016235,759.895630 564.564697,763.436218 
	C563.453918,765.040466 561.290771,766.239807 559.359131,766.876221 
	C556.435364,767.839294 555.026550,765.774658 553.729309,763.344971 
	C548.023071,752.658020 542.140686,742.065002 535.396606,731.629578 
	C535.396606,746.802368 535.396606,761.975159 535.396606,777.549194 
	C531.475891,777.549194 528.099792,777.549194 524.387695,777.549194 
	C524.387695,755.903503 524.387695,734.324402 524.387695,711.905945 
	C528.456299,711.905945 532.564087,711.592590 536.573486,712.082947 
	C537.901306,712.245300 539.293274,714.301636 540.115234,715.790466 
	C545.747314,725.991455 551.233032,736.273193 556.773804,746.524658 
	C557.387634,747.660339 558.051147,748.769165 559.134033,750.665039 
	C560.574402,748.180847 561.752991,746.283447 562.801575,744.316772 
	C567.970032,734.622253 573.069885,724.890991 578.271118,715.214294 
	C579.847900,712.280762 590.974243,710.182922 593.390137,712.425293 
	C594.058777,713.045898 593.898743,714.559387 594.121094,716.146362 
z"/>
<path fill="#69BAEC" opacity="1.000000" stroke="none" 
	d="
M263.956940,715.224060 
	C263.961761,736.170166 263.961761,756.637451 263.961761,777.532959 
	C260.135437,777.532959 256.575195,777.532959 252.370224,777.532959 
	C252.370224,762.364929 252.370224,747.054504 252.370224,731.744080 
	C252.004959,731.659973 251.639694,731.575806 251.274414,731.491699 
	C248.877502,735.959656 246.475433,740.424927 244.084885,744.896301 
	C240.633957,751.351135 237.244873,757.839783 233.725204,764.256836 
	C231.593689,768.143005 226.009720,768.377869 223.809143,764.480408 
	C218.248962,754.632690 212.966461,744.628357 207.559616,734.693848 
	C206.968048,733.606934 206.291260,732.566528 204.711304,731.738586 
	C204.711304,746.938721 204.711304,762.138855 204.711304,777.645630 
	C200.949295,777.645630 197.741379,777.645630 194.252686,777.645630 
	C194.252686,755.823242 194.252686,734.250916 194.252686,711.867065 
	C198.249176,711.867065 202.200333,711.552185 206.050308,712.038391 
	C207.393082,712.207947 208.832687,714.163940 209.638336,715.628540 
	C215.967377,727.134888 222.153259,738.719910 228.667679,750.808533 
	C234.626648,739.581726 240.383087,728.617798 246.279968,717.729858 
	C247.413010,715.637817 248.838104,712.521729 250.579636,712.180542 
	C254.564240,711.399658 258.831787,711.974854 262.971283,712.220886 
	C263.346893,712.243164 263.627441,713.865784 263.956940,715.224060 
z"/>
<path fill="#68BAEC" opacity="1.000000" stroke="none" 
	d="
M252.929169,652.000000 
	C252.929977,643.591125 252.929977,635.682251 252.929977,627.773376 
	C252.612045,627.685669 252.294113,627.597961 251.976196,627.510254 
	C248.474350,634.011902 244.981766,640.518555 241.467407,647.013428 
	C239.169861,651.259460 236.866577,655.502747 234.519012,659.721252 
	C231.874969,664.472351 226.949478,664.557617 224.296463,659.775024 
	C218.402390,649.149902 212.644104,638.449524 205.934021,627.810669 
	C205.934021,643.373718 205.934021,658.936707 205.934021,674.774719 
	C202.060898,674.774719 198.959625,674.774719 195.433807,674.774719 
	C195.433807,652.785706 195.433807,630.761658 195.433807,608.167908 
	C199.021606,608.167908 202.534286,607.795410 205.901199,608.333984 
	C207.452240,608.582153 209.175476,610.354065 210.040222,611.877930 
	C216.528046,623.310913 222.820953,634.854553 229.539597,647.024231 
	C233.167572,640.392883 236.553986,634.229431 239.914749,628.052002 
	C242.699219,622.933899 245.670486,617.901306 248.144379,612.636108 
	C249.784027,609.146423 251.871826,607.508179 255.820877,608.078308 
	C258.247681,608.428650 260.766205,608.143127 263.700684,608.143127 
	C263.700684,630.395935 263.700684,652.288757 263.700684,674.622925 
	C260.502869,674.622925 257.113983,674.622925 252.928360,674.622925 
	C252.928360,667.344604 252.928360,659.922302 252.929169,652.000000 
z"/>
<path fill="#69BAEC" opacity="1.000000" stroke="none" 
	d="
M748.000549,766.976440 
	C748.001099,770.763733 748.001099,774.054932 748.001099,777.425049 
	C741.042053,778.764954 735.964111,778.370850 731.750427,771.512634 
	C724.276001,759.347351 715.526917,747.965332 707.312988,736.254272 
	C706.195068,734.660583 705.087524,733.059631 703.156616,730.286316 
	C703.156616,746.841797 703.156616,762.005432 703.156616,777.942383 
	C699.760559,777.942383 696.809448,778.182556 693.938599,777.807617 
	C692.979675,777.682373 691.488953,775.986084 691.487244,775.005798 
	C691.452576,754.870056 691.593018,734.734009 691.727783,714.598206 
	C691.733032,713.815674 692.027100,713.035156 692.164368,712.362183 
	C699.503906,710.706299 704.602234,712.030334 708.895020,719.080139 
	C716.753357,731.985596 725.906128,744.103210 734.532349,756.540161 
	C735.056335,757.295715 735.696716,757.970459 737.030762,759.591858 
	C737.030762,743.138733 737.030762,727.809692 737.030762,712.070679 
	C740.737305,712.070679 743.996643,712.070679 748.000000,712.070679 
	C748.000000,730.007263 748.000000,748.243774 748.000549,766.976440 
z"/>
<path fill="#6ABBEC" opacity="1.000000" stroke="none" 
	d="
M760.395874,654.413696 
	C754.830505,636.245422 759.891602,620.572632 774.703613,612.055237 
	C787.968506,604.427490 801.793518,604.954346 814.319397,613.548035 
	C826.641113,622.001587 830.870117,634.681030 827.683289,649.090637 
	C824.588623,663.083618 815.680115,672.246826 801.449951,675.482788 
	C784.114990,679.424683 767.990967,671.150330 760.395874,654.413696 
M772.032349,631.829102 
	C768.570496,641.528198 769.419556,650.547852 776.630981,658.323181 
	C783.237976,665.446594 791.644836,666.691406 800.522339,664.251099 
	C810.985413,661.374817 816.610168,651.926819 816.095398,639.298706 
	C815.684021,629.205566 808.444092,620.560974 798.493652,618.281738 
	C788.045105,615.888428 777.729248,620.946289 772.032349,631.829102 
z"/>
<path fill="#6ABBEC" opacity="1.000000" stroke="none" 
	d="
M289.082916,751.731812 
	C285.757355,732.572021 296.047791,718.644958 308.721100,713.194763 
	C321.236755,707.812195 337.640991,710.341675 346.985870,719.393127 
	C357.416992,729.496582 360.550842,744.163208 355.126892,757.492615 
	C349.538940,771.224976 337.742249,779.129639 322.832092,779.132568 
	C305.800323,779.135925 294.252991,769.889832 289.082916,751.731812 
M342.228729,732.483154 
	C334.939484,721.567505 322.792999,718.053833 312.357330,723.842163 
	C302.069763,729.548340 297.835419,743.924133 303.069733,755.373840 
	C307.941895,766.031372 319.512085,770.885559 330.677094,766.956360 
	C343.560486,762.422302 348.845337,747.447083 342.228729,732.483154 
z"/>
<path fill="#6BBBEC" opacity="1.000000" stroke="none" 
	d="
M320.994995,676.061157 
	C315.400909,674.895935 310.038788,674.331055 305.206635,672.423523 
	C298.055267,669.600525 294.341064,663.428894 294.163727,655.961487 
	C293.792633,640.338318 294.051208,624.700134 294.051208,608.608887 
	C297.795898,608.608887 301.347473,608.608887 305.559753,608.608887 
	C305.640839,610.138977 305.808136,611.883789 305.813812,613.629150 
	C305.853943,625.943115 305.849030,638.257263 305.882172,650.571289 
	C305.907196,659.866333 311.237244,665.588562 319.955048,665.728638 
	C329.915070,665.888672 335.782471,660.439880 335.871368,650.644226 
	C335.990662,637.498962 335.918823,624.351990 335.947510,611.205750 
	C335.949249,610.403198 336.113068,609.601013 336.236633,608.479248 
	C339.630310,608.479248 342.873383,608.479248 346.714203,608.479248 
	C346.794952,610.202087 346.946228,611.954956 346.948151,613.708008 
	C346.961456,625.855835 346.521057,638.021667 347.038544,650.147034 
	C347.750763,666.833679 338.375244,675.982910 320.994995,676.061157 
z"/>
<path fill="#69BAEC" opacity="1.000000" stroke="none" 
	d="
M443.009949,627.164978 
	C450.010590,612.315430 462.402283,607.003113 477.394196,607.361023 
	C488.721924,607.631470 498.360535,611.981384 503.882202,623.368713 
	C501.472717,624.407227 499.441010,625.744629 497.256226,626.077454 
	C495.529999,626.340393 493.030823,625.970032 491.878021,624.849243 
	C483.173065,616.385742 470.900330,615.476929 460.989349,622.877502 
	C452.523743,629.198792 449.977722,643.161804 455.439240,653.315186 
	C460.595734,662.901428 473.051880,667.788879 483.370270,663.566345 
	C487.526550,661.865479 491.000519,658.497253 495.593109,655.330688 
	C497.517578,656.276855 500.392670,657.690369 503.223511,659.082153 
	C497.246307,673.880432 478.891449,680.224548 462.041656,673.831909 
	C443.841156,666.927002 435.666473,647.179199 443.009949,627.164978 
z"/>
<path fill="#69BAEC" opacity="1.000000" stroke="none" 
	d="
M656.846069,711.389648 
	C659.111877,711.389648 660.900085,711.389648 662.839722,711.389648 
	C662.839722,715.103882 662.839722,718.193542 662.839722,721.741333 
	C653.656738,721.741333 644.722351,721.741333 635.364258,721.741333 
	C635.364258,727.892151 635.364258,733.595093 635.364258,739.911865 
	C643.464111,739.911865 651.527405,739.911865 659.851013,739.911865 
	C659.851013,743.111084 659.851013,745.709290 659.851013,749.143127 
	C651.843018,749.143127 643.806580,749.143127 635.327759,749.143127 
	C635.327759,755.491699 635.327759,761.019958 635.327759,767.132507 
	C645.015991,767.132507 654.587036,767.132507 664.505005,767.132507 
	C664.505005,770.915955 664.505005,774.128601 664.505005,777.647400 
	C650.892151,777.647400 637.469482,777.647400 623.578247,777.647400 
	C623.472351,776.232666 623.270142,774.795471 623.271362,773.358337 
	C623.287659,754.369629 623.440247,735.380005 623.282959,716.392944 
	C623.249878,712.408630 624.460632,711.215637 628.386902,711.319702 
	C637.708130,711.566711 647.040588,711.393188 656.846069,711.389648 
z"/>
<path fill="#69BAEC" opacity="1.000000" stroke="none" 
	d="
M592.083862,636.000000 
	C592.083679,626.683411 592.083679,617.866882 592.083679,608.439453 
	C593.903625,608.323486 595.479675,608.140259 597.056274,608.135986 
	C606.881042,608.109253 616.709717,608.279968 626.529114,608.048035 
	C630.670105,607.950195 632.847412,608.459412 632.815552,613.554077 
	C632.785034,618.431519 630.714600,618.919922 626.789490,618.797180 
	C619.480469,618.568665 612.159241,618.731628 604.376709,618.731628 
	C604.376709,624.706055 604.376709,630.427429 604.376709,636.732117 
	C612.409729,636.732117 620.649597,636.732117 629.285767,636.732117 
	C629.285767,640.019348 629.285767,642.737854 629.285767,646.073120 
	C620.973633,646.073120 612.752319,646.073120 604.231934,646.073120 
	C604.231934,652.251221 604.231934,657.826660 604.231934,664.091064 
	C613.998840,664.091064 623.707397,664.091064 633.739502,664.091064 
	C633.739502,667.988098 633.739502,671.208069 633.739502,674.759033 
	C620.022827,674.759033 606.447815,674.759033 592.084106,674.759033 
	C592.084106,661.998108 592.084106,649.249023 592.083862,636.000000 
z"/>
<path fill="#6ABBEC" opacity="1.000000" stroke="none" 
	d="
M456.097473,750.000000 
	C456.108673,738.169556 456.019196,726.836914 456.260040,715.511353 
	C456.289551,714.123535 458.068787,711.601013 459.069611,711.584595 
	C470.885681,711.391174 482.707977,711.571655 494.528381,711.680359 
	C494.815552,711.683044 495.099884,711.992126 495.643982,712.308655 
	C495.643982,715.108704 495.643982,718.058655 495.643982,721.699829 
	C486.597473,721.699829 477.550781,721.699829 468.118744,721.699829 
	C468.118744,727.948975 468.118744,733.521729 468.118744,739.739502 
	C476.094604,739.739502 484.158691,739.739502 492.631897,739.739502 
	C492.751068,741.950500 492.737427,743.566895 492.944183,745.154541 
	C493.413544,748.758789 491.729828,749.777710 488.353149,749.653931 
	C482.861847,749.452881 477.355560,749.691528 471.860229,749.556335 
	C469.012726,749.486328 467.493408,750.240723 467.628174,753.444885 
	C467.808899,757.742859 467.672913,762.054199 467.672913,766.961975 
	C477.479279,766.961975 486.888855,766.961975 496.714844,766.961975 
	C496.714844,770.769531 496.714844,773.986023 496.714844,777.578003 
	C483.387451,777.578003 470.015656,777.578003 456.097260,777.578003 
	C456.097260,768.399719 456.097260,759.449829 456.097473,750.000000 
z"/>
<path fill="#6ABBEC" opacity="1.000000" stroke="none" 
	d="
M377.880249,638.062561 
	C368.261047,624.159668 374.237152,610.706848 391.025116,607.672363 
	C402.429352,605.610962 413.298706,610.241882 417.967499,619.151367 
	C412.719879,624.370056 412.064728,623.853394 405.920044,620.655334 
	C401.942230,618.585205 396.864929,618.077942 392.250549,617.950928 
	C388.410248,617.845093 385.265839,620.197205 384.824829,624.605225 
	C384.339966,629.451721 387.189270,632.061829 391.387939,633.295349 
	C396.953278,634.930359 402.745972,635.875366 408.189575,637.820374 
	C415.571655,640.458008 419.734528,645.876709 420.120636,653.983521 
	C420.542114,662.833191 417.441437,669.613708 409.117584,673.416931 
	C400.433044,677.384827 391.677338,676.993774 382.977173,673.454224 
	C377.563141,671.251709 373.260162,667.796265 370.705688,661.603638 
	C373.440979,659.937561 376.165039,658.278320 379.148438,656.461121 
	C383.492371,662.309631 388.590637,665.970337 395.692230,666.071411 
	C403.337952,666.180237 408.003357,663.412415 408.814545,658.109619 
	C409.627808,652.793579 405.927521,648.801514 398.394653,646.926758 
	C395.009308,646.084106 391.416260,645.751770 388.262360,644.389465 
	C384.676941,642.840637 381.477020,640.399597 377.880249,638.062561 
z"/>
<path fill="#6ABBEC" opacity="1.000000" stroke="none" 
	d="
M426.595093,730.676270 
	C421.257843,745.238770 416.009460,759.422119 410.981689,773.683228 
	C409.851379,776.889343 408.175934,778.274780 404.778198,777.847473 
	C401.560303,777.442810 398.178802,778.958252 396.378632,774.026123 
	C389.314453,754.671387 381.727203,735.507629 374.356445,716.264465 
	C373.890717,715.048584 373.613464,713.760559 373.113342,712.041321 
	C377.532867,712.041321 381.608124,712.041321 386.285767,712.041321 
	C391.756104,729.073425 397.315491,746.382751 403.332062,765.115479 
	C405.823822,756.745544 407.778076,749.778992 409.978241,742.891052 
	C412.808838,734.029419 416.000488,725.280273 418.696960,716.379822 
	C419.741730,712.931274 421.289062,711.360474 424.986298,711.830261 
	C427.425568,712.140137 429.936127,711.888855 433.542480,711.888855 
	C431.140167,718.422424 428.951965,724.373779 426.595093,730.676270 
z"/>
<path fill="#68BAEC" opacity="1.000000" stroke="none" 
	d="
M777.235596,721.799194 
	C770.736206,721.666809 770.629822,721.474915 771.551086,711.814941 
	C788.522095,711.814941 805.546509,711.814941 822.803650,711.814941 
	C822.803650,714.966919 822.803650,718.031433 822.803650,721.592224 
	C816.257935,721.592224 809.985596,721.592224 803.111450,721.592224 
	C803.111450,740.460938 803.111450,758.846863 803.111450,777.592163 
	C798.969299,777.592163 795.434387,777.592163 791.419556,777.592163 
	C791.419556,759.158691 791.419556,740.904114 791.419556,721.798523 
	C786.551208,721.798523 782.127625,721.798523 777.235596,721.799194 
z"/>
<path fill="#68BAEC" opacity="1.000000" stroke="none" 
	d="
M715.000000,608.350647 
	C722.655273,608.343567 729.810669,608.349670 736.965881,608.325928 
	C745.557495,608.297424 745.557434,608.286438 744.335571,617.938538 
	C737.880066,617.938538 731.323486,617.938538 724.061035,617.938538 
	C724.061035,637.156006 724.061035,655.824890 724.061035,674.776550 
	C720.113403,674.776550 716.874878,674.776550 713.087524,674.776550 
	C713.087524,656.283142 713.087524,637.902771 713.087524,618.787109 
	C705.878723,618.787109 699.186707,618.787109 692.270386,618.787109 
	C692.270386,615.105896 692.270386,612.163635 692.270386,608.350525 
	C699.697205,608.350525 707.098633,608.350525 715.000000,608.350647 
z"/>
<path fill="#67B9EC" opacity="1.000000" stroke="none" 
	d="
M543.006104,675.070190 
	C538.208862,675.069885 533.910034,675.069885 529.237305,675.069885 
	C529.237305,652.697693 529.237305,630.706116 529.237305,608.437744 
	C532.710571,608.437744 535.966125,608.437744 539.872742,608.437744 
	C539.872742,626.893127 539.872742,645.243835 539.872742,664.276062 
	C550.202881,664.276062 559.908875,664.276062 569.808533,664.276062 
	C569.808533,668.077148 569.808533,671.187866 569.808533,675.070496 
	C560.987122,675.070496 552.245850,675.070496 543.006104,675.070190 
z"/>
<path fill="#67B9EC" opacity="1.000000" stroke="none" 
	d="
M266.162476,504.574890 
	C265.730347,503.832947 265.048706,502.622528 265.045654,501.410400 
	C264.985992,477.756592 265.001892,454.102631 265.027466,430.448700 
	C265.028168,429.809540 265.308563,429.170685 265.772797,428.243958 
	C266.134338,453.339355 266.181610,478.722473 266.162476,504.574890 
z"/>
<path fill="#67B9EC" opacity="1.000000" stroke="none" 
	d="
M266.082336,394.549866 
	C265.828094,390.529480 265.627411,386.045502 265.728668,381.273193 
	C266.065735,385.351990 266.100830,389.719147 266.082336,394.549866 
z"/>
<path fill="#67B9EC" opacity="1.000000" stroke="none" 
	d="
M266.133606,422.576447 
	C265.875702,419.200928 265.667725,415.362823 265.768585,411.243042 
	C266.112793,414.678833 266.148163,418.396362 266.133606,422.576447 
z"/>
<path fill="#67B9EC" opacity="1.000000" stroke="none" 
	d="
M266.068359,368.612122 
	C265.949738,367.768982 265.893158,366.535034 266.187897,365.187744 
	C266.402954,366.123352 266.266663,367.172333 266.068359,368.612122 
z"/>
<path fill="#67B9EC" opacity="1.000000" stroke="none" 
	d="
M265.990784,507.741882 
	C265.777527,507.813751 265.603119,507.652527 265.474457,507.460632 
	C265.448578,507.422119 265.596497,507.267090 265.829651,507.083221 
	C265.995026,507.000641 266.045685,507.498016 265.990784,507.741882 
z"/>


</svg>